<?xml version="1.0" encoding="iso-8859-1"?>
<!-- Uploaded to: SVG Repo, www.svgrepo.com, Generator: SVG Repo Mixer Tools -->
<svg fill="#000000" height="800px" width="800px" version="1.1" id="Layer_1" xmlns="http://www.w3.org/2000/svg" xmlns:xlink="http://www.w3.org/1999/xlink" 
	 viewBox="0 0 330 330" xml:space="preserve">
<g id="XMLID_110_">
	<path id="XMLID_138_" d="M255,210h-15v-15c0-8.284-6.716-15-15-15s-15,6.716-15,15v15h-15c-8.284,0-15,6.716-15,15s6.716,15,15,15
		h15v15c0,8.284,6.716,15,15,15s15-6.716,15-15v-15h15c8.284,0,15-6.716,15-15S263.284,210,255,210z"/>
	<polygon id="XMLID_169_" points="250,0 20,0 60,30 135,86.25 	"/>
	<path id="XMLID_197_" d="M270,130.145V22.5L240,45l-96,72c-2.666,2-5.834,3-9,3s-6.334-1-9-3L0,22.5V195c0,8.284,6.716,15,15,15
		h106.076c-0.704,4.901-1.076,9.907-1.076,15c0,57.897,47.104,105,105,105s105-47.103,105-105
		C330,183.198,305.443,147.027,270,130.145z M225,300c-41.355,0-75-33.645-75-75s33.645-75,75-75s75,33.645,75,75
		S266.355,300,225,300z"/>
</g>
</svg>